HIERARCHY
ROOT Root
{
	OFFSET 0.00000 0.00000 0.00000
	CHANNELS 6 Xposition Yposition Zposition Zrotation Xrotation Yrotation
	JOINT Hips
	{
		OFFSET 0 0 0	
		CHANNELS 3 Zrotation Xrotation Yrotation
		JOINT Spine
		{
			OFFSET 0 4 0	
			CHANNELS 3 Zrotation Xrotation Yrotation
			JOINT Spine1
			{
				OFFSET 0 19.4 0	
				CHANNELS 3 Zrotation Xrotation Yrotation
				JOINT Spine2
				{
					OFFSET 0 16.6 0	
					CHANNELS 3 Zrotation Xrotation Yrotation
					JOINT LeftCollar
					{
						OFFSET 0 10 0	
						CHANNELS 3 Zrotation Xrotation Yrotation
						JOINT LeftArm
						{
							OFFSET 15.6 -2 3	
							CHANNELS 3 Zrotation Xrotation Yrotation
							JOINT LeftForeArm
							{
								OFFSET 3.5 -27 -1	
								CHANNELS 3 Zrotation Xrotation Yrotation
								JOINT LeftHand
								{
									OFFSET 1 -27 1	
									CHANNELS 3 Zrotation Xrotation Yrotation
									End Site
									{
										OFFSET 0 -15 0
									}
								}
							}
						}
					}
					JOINT RightCollar
					{
						OFFSET 0 10 0	
						CHANNELS 3 Zrotation Xrotation Yrotation
						JOINT RightArm
						{
							OFFSET -15.6 -2 3	
							CHANNELS 3 Zrotation Xrotation Yrotation
							JOINT RightForeArm
							{
								OFFSET -3.5 -27 -1	
								CHANNELS 3 Zrotation Xrotation Yrotation
								JOINT RightHand
								{
									OFFSET -1 -27 1	
									CHANNELS 3 Zrotation Xrotation Yrotation
									End Site
									{
										OFFSET 0 -15 0
									}
								}
							}
						}
					}
					JOINT Neck
					{
						OFFSET 0 10 0	
						CHANNELS 3 Zrotation Xrotation Yrotation
						JOINT Head
						{
							OFFSET 0 12.7 3	
							CHANNELS 3 Zrotation Xrotation Yrotation
							End Site
							{
								OFFSET 0 12.7 3
							}
						}
					}
				}
			}
		}
	}
	JOINT LeftHip
	{
		OFFSET 0 0 0	
		CHANNELS 3 Zrotation Xrotation Yrotation
		JOINT LeftUpLeg
		{
			OFFSET 8.8 -6 0	
			CHANNELS 3 Zrotation Xrotation Yrotation
			JOINT LeftLeg
			{
				OFFSET 0 -39 2	
				CHANNELS 3 Zrotation Xrotation Yrotation
				JOINT LeftFoot
				{
					OFFSET 0 -43 -2	
					CHANNELS 3 Zrotation Xrotation Yrotation
					JOINT LeftFootFront
					{
						OFFSET 0 -7 8.5	
						CHANNELS 3 Zrotation Xrotation Yrotation
						End Site
						{
							OFFSET 0 -0.5 9
						}
					}
				}
				JOINT LeftHeel
				{
					OFFSET 0 -43 -2	
					CHANNELS 3 Zrotation Xrotation Yrotation
					End Site
					{
						OFFSET 0 -7.5 -5
					}
				}
			}
		}
	}
	JOINT RightHip
	{
		OFFSET 0 0 0	
		CHANNELS 3 Zrotation Xrotation Yrotation
		JOINT RightUpLeg
		{
			OFFSET -8.8 -6 0	
			CHANNELS 3 Zrotation Xrotation Yrotation
			JOINT RightLeg
			{
				OFFSET 0 -39 2	
				CHANNELS 3 Zrotation Xrotation Yrotation
				JOINT RightFoot
				{
					OFFSET 0 -43 -2	
					CHANNELS 3 Zrotation Xrotation Yrotation
					JOINT RightFootFront
					{
						OFFSET 0 -7 8.5	
						CHANNELS 3 Zrotation Xrotation Yrotation
						End Site
						{
							OFFSET 0 -0.5 9
						}
					}
				}
				JOINT RightHeel
				{
					OFFSET 0 -43 -2	
					CHANNELS 3 Zrotation Xrotation Yrotation
					End Site
					{
						OFFSET 0 -7.5 -5
					}
				}
			}
		}
	}
}
MOTION
Frames: 16
Frame Time: 0.025
17.691 92.628 -0.50174 -0 0 -0 -2.7342 4.1198 0.56496 2.104 -4.2074 0.48569 2.104 -4.2074 0.48569 1.7644 -3.5355 0.39745 -0 0 -0 68.995 -32.662 57.418 26.385 11.446 -11.082 0.45404 -1.6967 -7.9703 -0 0 -0 -62.688 -17.525 -53.265 5.2491 -25.636 3.8677 28.971 18.35 -25.408 -0.33018 12.67 -3.9029 1.3498 9.132 -3.5218 -2.7342 4.1198 0.56496 -6.2785 -14.328 -11.431 -11.306 15.727 5.9442 16.012 -2.7085 8.0053 0.059331 -2.7115 -0.009796 -0 0 -0 -2.7342 4.1198 0.56496 -6.5614 -22.28 9.3179 -2.9222 8.9987 10.378 25.853 19.787 9.8768 -0.34366 -10.436 0.048706 -0 0 -0 
17.661 92.684 -0.8659 -0 0 -0 -3.1331 4.3186 0.067591 2.4117 -4.2268 0.37878 2.4117 -4.2268 0.37878 2.0233 -3.5516 0.3061 -0 0 -0 68.678 -31.735 57.204 26.158 11.666 -10.709 0.64161 -1.5657 -8.326 -0 0 -0 -64.238 -18.794 -51.76 4.4962 -23.754 5.73 30.938 24.068 -19.866 -0.73522 12.675 -3.4174 1.2288 9.1193 -3.1542 -3.1331 4.3186 0.067591 -5.8474 -14.602 -10.98 -10.902 15.366 5.9059 15.63 -2.3951 7.8759 0.055418 -2.6357 -0.0076125 -0 0 -0 -3.1331 4.3186 0.067591 -5.9409 -24.344 9.5944 -3.2153 11.075 10.437 26.974 22.15 9.6496 -0.21637 -9.8934 0.12595 -0 0 -0 
17.618 92.757 -1.245 -0 0 -0 -3.5849 4.6017 -0.46601 2.7288 -4.2848 0.28685 2.7288 -4.2848 0.28685 2.29 -3.6002 0.22714 -0 0 -0 68.311 -30.834 56.846 25.974 11.838 -10.308 0.76369 -1.4104 -8.6414 -0 0 -0 -65.577 -20.053 -50.315 4.2714 -22.02 6.934 33.45 29.745 -15.671 -1.0949 12.714 -2.9781 1.1577 9.11 -2.8182 -3.5849 4.6017 -0.46601 -5.287 -15.03 -10.477 -10.606 15.041 5.9908 15.214 -2.1119 7.6576 0.0052794 -2.5448 -0.001421 -0 0 -0 -3.5849 4.6017 -0.46601 -5.0324 -26.678 10.099 -3.637 13.588 10.284 28.387 24.598 9.283 -0.051012 -9.2849 0.15894 -0 0 -0 
17.557 92.845 -1.631 -0 0 -0 -3.9406 4.9517 -1.1057 2.9902 -4.3253 0.24144 2.9902 -4.3253 0.24144 2.5097 -3.6342 0.18754 -0 0 -0 68.093 -30.089 56.71 25.901 12.042 -10.126 0.87461 -1.3634 -8.8476 -0 0 -0 -66.676 -21.305 -48.946 4.2054 -20.343 7.72 36.653 34.823 -13.342 -1.3843 12.66 -2.5886 1.1005 9.0222 -2.488 -3.9406 4.9517 -1.1057 -4.7503 -15.564 -9.751 -10.38 14.761 6.0571 14.825 -1.8458 7.3766 -0.026887 -2.455 0.001324 -0 0 -0 -3.9406 4.9517 -1.1057 -3.8635 -29.133 10.736 -4.2048 16.556 10.064 29.712 26.941 8.9204 0.016426 -9.1941 0.11825 -0 0 -0 
17.476 92.948 -2.0151 -0 0 -0 -4.1201 5.3347 -1.8221 3.1573 -4.3165 0.22366 3.1573 -4.3165 0.22366 2.6501 -3.6268 0.1718 -0 0 -0 68.112 -29.484 56.942 25.895 12.319 -10.187 1.0463 -1.5023 -8.9468 -0 0 -0 -67.485 -22.556 -47.588 3.9667 -18.729 8.7961 40.344 38.73 -12.926 -1.6034 12.447 -2.2042 1.0282 8.8171 -2.1334 -4.1201 5.3347 -1.8221 -4.3773 -16.127 -8.8311 -10.131 14.519 6.0019 14.481 -1.5797 7.1026 -0.024764 -2.3808 0.00026429 -0 0 -0 -4.1201 5.3347 -1.8221 -2.5357 -31.69 11.21 -4.9724 20.177 10.11 30.444 28.915 8.8807 0.18083 -9.548 0.02216 -0 0 -0 
17.372 93.065 -2.3899 -0 0 -0 -4.1868 5.7286 -2.4917 3.2613 -4.2835 0.1713 3.2613 -4.2835 0.1713 2.7377 -3.5989 0.12743 -0 0 -0 68.243 -28.853 57.344 25.84 12.639 -10.249 1.307 -1.7697 -9.0471 -0 0 -0 -68.027 -23.776 -46.076 3.5325 -17.304 10.755 43.653 41.622 -13.622 -1.8074 12.144 -1.7503 0.92387 8.5431 -1.7364 -4.1868 5.7286 -2.4917 -4.1487 -16.68 -7.9977 -9.8364 14.29 5.9255 14.159 -1.2908 6.878 -0.021624 -2.3357 -0.003911 -0 0 -0 -4.1868 5.7286 -2.4917 -1.1906 -34.25 11.338 -5.9962 24.414 10.634 30.461 30.251 9.0525 0.31905 -9.8428 0.19317 -0 0 -0 
17.244 93.196 -2.7492 -0 0 -0 -4.2925 6.106 -2.9942 3.3877 -4.2675 0.029437 3.3877 -4.2675 0.029437 2.8446 -3.5849 0.0077288 -0 0 -0 68.248 -28.052 57.6 25.661 12.972 -10.072 1.6197 -2.0469 -9.2324 -0 0 -0 -68.408 -24.926 -44.302 2.997 -16.094 14.012 45.561 44.089 -14.334 -2.0959 11.875 -1.1721 0.7703 8.2927 -1.2967 -4.2925 6.106 -2.9942 -3.9042 -17.187 -7.4817 -9.5487 14.026 5.9636 13.907 -0.95559 6.6776 -0.090796 -2.3175 0.012586 -0 0 -0 -4.2925 6.106 -2.9942 0.1755 -36.524 10.945 -7.4515 28.894 11.919 29.876 31.001 9.2331 0.18533 -10.134 0.27161 -0 0 -0 
17.093 93.337 -3.0884 -0 0 -0 -4.5691 6.4302 -3.2754 3.616 -4.2832 -0.21102 3.616 -4.2832 -0.21102 3.0375 -3.5971 -0.19541 -0 0 -0 67.97 -27.1 57.577 25.382 13.299 -9.6514 1.9232 -2.2198 -9.4984 -0 0 -0 -68.752 -25.974 -42.221 2.3342 -14.959 18.61 45.394 46.599 -14.128 -2.5513 11.715 -0.47521 0.55411 8.1294 -0.83366 -4.5691 6.4302 -3.2754 -3.4843 -17.577 -7.2218 -9.2842 13.692 6.0662 13.481 -0.55926 6.5235 0.0033885 -2.3588 -0.012651 -0 0 -0 -4.5691 6.4302 -3.2754 1.7039 -38.438 9.9954 -9.5865 33.311 13.958 28.63 31.523 9.5149 0.14685 -10.442 0.039997 -0 0 -0 
16.922 93.489 -3.4042 -0 0 -0 -5.0552 6.6636 -3.3368 3.9613 -4.3184 -0.52532 3.9613 -4.3184 -0.52532 3.3291 -3.6252 -0.46124 -0 0 -0 67.416 -26.112 57.384 25.075 13.542 -9.1785 2.1681 -2.2115 -9.8074 -0 0 -0 -69.087 -26.859 -39.74 1.5242 -13.871 23.742 42.694 49.572 -12.173 -3.1596 11.669 0.2805 0.29826 8.0736 -0.38541 -5.0552 6.6636 -3.3368 -2.8354 -17.781 -6.9958 -9.0033 13.287 6.0719 13.059 -0.11076 6.3167 0.036247 -2.4402 -0.021588 -0 0 -0 -5.0552 6.6636 -3.3368 3.4861 -40.072 9.1467 -12.226 37.651 16.203 27.066 32.093 9.543 0.11117 -0.30364 0.058555 -0 0 -0 
16.737 93.645 -3.6955 -0 0 -0 -5.6785 6.7842 -3.2278 4.3644 -4.3534 -0.86358 4.3644 -4.3534 -0.86358 3.6693 -3.6526 -0.74753 -0 0 -0 66.698 -25.231 57.125 24.816 13.619 -8.8044 2.3228 -2.0119 -10.125 -0 0 -0 -69.294 -27.453 -36.711 0.56578 -13.002 27.906 36.959 53.09 -7.5825 -3.801 11.722 0.98908 0.063976 8.1252 -0.0072939 -5.6785 6.7842 -3.2278 -2.0148 -17.789 -6.6661 -8.7104 12.836 5.943 12.495 0.4501 6.0743 0.090393 -2.6617 -0.060318 -0 0 -0 -5.6785 6.7842 -3.2278 5.336 -41.426 8.9891 -14.79 42.145 18.333 25.511 32.64 8.8578 -0.0016708 -0.27652 0.26749 -0 0 -0 
16.547 93.802 -3.963 -0 0 -0 -6.2849 6.8114 -3.0435 4.7299 -4.3733 -1.1704 4.7299 -4.3733 -1.1704 3.9778 -3.6673 -1.0072 -0 0 -0 65.981 -24.59 56.855 24.685 13.577 -8.6338 2.3844 -1.7539 -10.369 -0 0 -0 -69.219 -27.66 -33.15 -0.51129 -12.555 29.665 27.503 56.583 0.63391 -4.332 11.828 1.5579 -0.096649 8.244 0.26539 -6.2849 6.8114 -3.0435 -1.1732 -17.664 -6.1803 -8.4425 12.359 5.6786 11.727 1.1872 5.8619 0.15963 -3.091 -0.078419 -0 0 -0 -6.2849 6.8114 -3.0435 6.7541 -42.456 9.0759 -17.004 46.842 20.333 23.908 33.182 7.5474 -0.089652 -0.22388 0.33936 -0 0 -0 
16.361 93.955 -4.209 -0 0 -0 -6.7377 6.8196 -2.8658 4.9951 -4.3822 -1.4085 4.9951 -4.3822 -1.4085 4.2017 -3.6731 -1.2085 -0 0 -0 65.381 -24.255 56.663 24.734 13.513 -8.7367 2.3791 -1.6258 -10.489 -0 0 -0 -68.88 -27.549 -29.535 -1.5943 -12.464 29.019 14.714 58.769 12.171 -4.6918 11.91 1.9571 -0.18419 8.3435 0.43866 -6.7377 6.8196 -2.8658 -0.49819 -17.51 -5.5064 -8.1293 11.894 5.2371 10.707 1.9383 5.6958 0.16412 -3.5732 0.0082619 -0 0 -0 -6.7377 6.8196 -2.8658 7.3324 -43.15 8.6713 -19.115 51.473 22.248 22.035 33.985 6.0105 -0.060594 -0.2068 0.33218 -0 0 -0 
16.19 94.099 -4.4362 -0 0 -0 -6.987 6.8704 -2.7315 5.163 -4.3899 -1.567 5.163 -4.3899 -1.567 4.3436 -3.6783 -1.3426 -0 0 -0 64.897 -24.17 56.584 24.911 13.464 -9.0088 2.3516 -1.6894 -10.58 -0 0 -0 -68.521 -27.426 -26.735 -2.5479 -12.3 27.589 1.756 58.65 23.623 -4.9278 11.904 2.216 -0.24759 8.3499 0.54762 -6.987 6.8704 -2.7315 -0.1155 -17.392 -4.7575 -7.6958 11.461 4.7042 9.4019 2.565 5.5882 0.11799 -3.9872 0.06036 -0 0 -0 -6.987 6.8704 -2.7315 7.0317 -43.58 7.7708 -21.285 55.921 23.968 19.86 35.118 4.5327 0.056113 -0.16535 0.21416 -0 0 -0 
16.042 94.23 -4.647 -0 0 -0 -7.0594 6.9488 -2.6778 5.27 -4.3899 -1.6431 5.27 -4.3899 -1.6431 4.4338 -3.6777 -1.407 -0 0 -0 64.456 -24.219 56.548 25.097 13.394 -9.2168 2.3388 -1.8707 -10.757 -0 0 -0 -68.371 -27.638 -25.366 -3.2788 -11.626 26.569 -8.5574 56.433 31.845 -5.1124 11.798 2.3727 -0.32957 8.2552 0.62848 -7.0594 6.9488 -2.6778 -0.011743 -17.301 -4.1316 -7.1929 11.015 4.2886 8.051 2.9768 5.4741 -0.084799 -4.1881 0.059098 -0 0 -0 -7.0594 6.9488 -2.6778 6.0778 -43.727 6.7697 -23.388 60.19 25.2 17.205 36.584 3.4888 0.23832 -0.16804 -0.050867 -0 0 -0 
15.925 94.347 -4.8433 -0 0 -0 -7.0203 6.9948 -2.7474 5.3567 -4.3681 -1.6239 5.3567 -4.3681 -1.6239 4.5064 -3.6593 -1.3912 -0 0 -0 63.988 -24.346 56.431 25.213 13.283 -9.191 2.3495 -2.0483 -11.04 -0 0 -0 -68.416 -28.166 -25.234 -3.8574 -10.346 25.846 -16.388 52.435 36.729 -5.2863 11.622 2.4256 -0.43778 8.1011 0.68882 -7.0203 6.9948 -2.7474 -0.06542 -17.189 -3.652 -6.6579 10.562 4.2522 6.8851 3.1507 5.1246 -0.27845 -4.1477 0.043856 -0 0 -0 -7.0203 6.9948 -2.7474 4.8442 -43.396 5.7908 -25.555 64.089 26.153 13.947 38.237 3.0018 0.28339 -0.10477 -0.19345 -0 0 -0 
15.843 94.448 -5.0263 -0 0 -0 -6.9475 6.9741 -2.9608 5.4569 -4.3279 -1.5018 5.4569 -4.3279 -1.5018 4.5899 -3.6262 -1.289 -0 0 -0 63.466 -24.549 56.168 25.261 13.161 -8.9659 2.3567 -2.1551 -11.341 -0 0 -0 -68.515 -28.707 -25.611 -4.5307 -8.61 25.148 -22.219 46.467 38.358 -5.4688 11.432 2.3648 -0.56163 7.9407 0.72308 -6.9475 6.9741 -2.9608 -0.16344 -17.028 -3.1951 -6.165 10.13 4.4465 6.134 3.2531 4.6178 -0.26142 -4.0132 0.029993 -0 0 -0 -6.9475 6.9741 -2.9608 3.6604 -42.453 4.691 -28.273 67.289 27.755 10.524 39.691 2.5533 0.02216 0.24937 -0.13789 -0 0 -0 
